<?xml version="1.0" standalone="no"?>
<!DOCTYPE svg PUBLIC "-//W3C//DTD SVG 20010904//EN"
 "http://www.w3.org/TR/2001/REC-SVG-20010904/DTD/svg10.dtd">
<svg version="1.0" xmlns="http://www.w3.org/2000/svg"
 width="512.000000pt" height="512.000000pt" viewBox="0 0 512.000000 512.000000"
 preserveAspectRatio="xMidYMid meet">

<g transform="translate(0.000000,512.000000) scale(0.100000,-0.100000)"
fill="#000000" stroke="none">
<path d="M3159 4371 c-121 -47 -243 -172 -318 -324 -58 -120 -80 -207 -116
-467 -14 -102 -29 -203 -33 -225 l-7 -40 -66 -7 c-37 -3 -77 -12 -90 -19 -19
-10 -25 -9 -31 2 -5 8 -41 70 -80 139 -143 254 -276 436 -387 533 -64 56 -189
120 -276 142 -112 28 -246 15 -296 -31 -26 -24 -24 -70 5 -99 59 -59 199 -57
284 4 17 11 36 21 43 21 26 0 152 -83 215 -142 89 -84 198 -251 354 -543 l53
-100 -37 -50 c-38 -49 -38 -50 -32 -121 4 -39 15 -103 26 -140 10 -38 18 -69
17 -70 -1 -1 -38 20 -82 48 -195 122 -597 300 -896 397 -302 97 -482 132 -725
138 -326 9 -484 -33 -515 -136 -25 -84 42 -285 164 -494 216 -372 603 -964
677 -1038 104 -104 255 -148 444 -128 76 8 157 26 301 67 13 3 -2 -19 -41 -60
-198 -213 -277 -432 -229 -636 54 -226 232 -369 570 -456 423 -108 683 -21
749 252 14 56 31 261 19 232 -11 -29 -47 -60 -68 -60 -81 0 -138 156 -115 317
8 59 27 111 92 253 46 98 85 176 88 173 6 -6 18 -53 65 -248 58 -248 147 -528
205 -651 38 -78 77 -124 106 -124 22 0 43 42 50 100 11 95 -41 463 -96 675
-15 61 -35 149 -44 198 -9 48 -20 95 -23 105 -10 25 73 -47 227 -200 147 -144
186 -202 216 -318 24 -94 1 -150 -60 -150 -33 0 -62 16 -109 59 -21 18 -6 -11
50 -104 139 -230 220 -289 403 -289 78 0 108 5 168 26 263 95 510 359 583 623
32 118 25 236 -20 327 -61 123 -226 276 -414 386 -89 52 -93 45 43 87 362 112
469 279 585 916 19 107 58 274 85 370 72 249 92 367 88 497 -5 165 -44 222
-157 230 -175 13 -558 -143 -960 -391 -214 -132 -340 -241 -502 -432 -93 -110
-230 -294 -297 -398 l-50 -78 -7 88 c-14 169 -52 244 -140 273 -19 6 -35 15
-35 18 0 4 11 85 25 180 30 214 61 381 82 447 24 78 79 176 127 228 l43 47 73
0 c95 0 145 16 192 61 45 43 52 88 16 113 -30 21 -121 20 -179 -3z m1666 -236
c32 -31 34 -86 5 -115 -49 -49 -150 -9 -150 60 0 71 94 107 145 55z m-151
-161 c22 -21 20 -40 -9 -90 -31 -52 -75 -81 -140 -89 -56 -7 -122 10 -138 36
-26 41 29 115 106 142 58 21 161 22 181 1z m81 -179 c53 -52 16 -139 -60 -139
-42 0 -72 26 -81 71 -5 27 -1 37 24 63 39 38 83 40 117 5z m-612 -56 c47 -22
60 -83 27 -136 -24 -40 -69 -64 -123 -65 -32 0 -46 5 -64 26 -44 51 -22 122
51 167 35 21 74 24 109 8z m364 -22 c10 -9 17 -32 17 -53 0 -29 -7 -43 -33
-66 -32 -28 -38 -30 -104 -26 -58 3 -73 8 -88 27 -36 44 -20 103 34 127 43 19
151 14 174 -9z m-644 -39 c56 -29 62 -81 16 -132 -88 -101 -228 -32 -160 80
19 31 72 63 104 64 10 0 28 -5 40 -12z m812 -203 c38 -37 34 -88 -9 -131 -81
-81 -183 -5 -131 96 30 59 100 76 140 35z m-295 -28 c58 -15 84 -59 74 -127
-13 -95 -46 -123 -173 -146 -86 -15 -299 -18 -320 -5 -49 31 32 211 113 250
76 37 220 50 306 28z m-604 -58 c62 -16 88 -50 80 -107 -14 -101 -116 -236
-286 -378 -278 -232 -380 -286 -410 -214 -7 18 -10 44 -6 66 15 77 150 304
273 457 65 81 146 144 216 168 62 22 74 22 133 8z m-3383 -96 c26 -30 29 -65
8 -100 -41 -66 -118 -86 -161 -43 -37 37 -16 115 38 144 38 21 95 20 115 -1z
m316 -68 c70 -36 21 -113 -85 -135 -101 -21 -194 12 -194 69 0 27 53 69 98 76
20 4 42 8 47 11 20 7 105 -5 134 -21z m321 -4 c47 -34 39 -100 -16 -126 -93
-44 -192 36 -139 113 30 42 105 48 155 13z m169 -97 c25 -31 26 -55 7 -92 -20
-38 -47 -61 -83 -68 -26 -5 -37 -1 -59 21 -36 36 -29 87 21 133 44 41 85 43
114 6z m3158 -76 c22 -23 20 -88 -4 -131 -36 -62 -73 -71 -308 -75 -135 -3
-220 0 -237 7 -37 14 -36 43 5 111 27 45 40 57 80 72 70 26 164 36 314 35 111
-2 135 -5 150 -19z m254 -17 c37 -38 39 -82 4 -116 -67 -68 -184 10 -141 94
31 59 90 68 137 22z m-3826 -36 c40 -40 29 -92 -25 -120 -66 -34 -134 -10
-146 52 -15 77 112 128 171 68z m-288 -27 c42 -40 25 -117 -34 -147 -59 -30
-123 9 -123 75 0 77 102 124 157 72z m1107 -29 c205 -68 589 -258 712 -352 75
-57 91 -110 37 -123 -64 -17 -447 32 -638 81 -229 58 -412 193 -430 319 -8 51
13 101 48 116 38 17 148 0 271 -41z m-464 -147 c98 -49 58 -153 -85 -219 -76
-35 -171 -39 -204 -9 -34 31 -46 85 -28 128 38 91 220 149 317 100z m3025 -42
c91 -14 115 -30 115 -78 -1 -65 -32 -117 -92 -151 -95 -55 -243 -75 -625 -87
-244 -8 -283 -2 -283 41 0 52 134 182 252 243 51 26 58 27 268 33 118 3 233 6
255 7 22 1 71 -3 110 -8z m-3458 -84 c23 -20 28 -32 28 -71 0 -39 -5 -51 -28
-71 -41 -35 -88 -32 -121 7 -30 35 -32 58 -11 99 32 61 85 76 132 36z m632
-110 c37 -20 89 -80 97 -113 6 -23 1 -32 -33 -62 -73 -65 -265 -161 -321 -161
-51 0 -132 100 -132 164 0 17 11 33 33 49 69 52 257 135 310 136 10 1 31 -6
46 -13z m778 -200 c97 -20 142 -42 150 -74 11 -44 -54 -89 -255 -180 -304
-137 -431 -175 -592 -176 -93 -1 -111 2 -155 24 -95 47 -126 142 -64 195 91
76 328 195 441 220 79 18 369 13 475 -9z m-1233 -76 c44 -42 5 -130 -56 -130
-35 0 -78 40 -78 72 0 30 26 67 54 78 26 11 55 3 80 -20z m2321 -65 c88 -8
170 -17 182 -20 27 -6 245 -220 301 -295 81 -110 110 -198 82 -251 -19 -34
-103 -69 -167 -69 -75 0 -135 28 -239 113 -72 58 -279 269 -333 338 -11 15
-29 65 -39 113 l-19 86 36 0 c20 0 108 -7 196 -15z m-457 -174 c18 -71 32
-139 32 -151 0 -25 -81 -209 -133 -303 -45 -80 -134 -178 -181 -201 -69 -33
-132 -12 -168 57 -19 35 -23 56 -22 132 1 105 29 203 102 358 l46 99 135 68
c75 38 141 69 146 69 6 1 25 -57 43 -128z m966 99 c117 -26 243 -64 333 -102
134 -55 213 -181 168 -267 -19 -38 -64 -55 -129 -48 -128 13 -250 118 -425
365 -28 39 -48 72 -43 72 4 0 47 -9 96 -20z m-1509 -316 c-36 -190 -73 -272
-174 -378 -44 -46 -128 -96 -163 -96 -9 0 -30 12 -47 26 -42 35 -48 77 -22
164 20 64 30 80 103 156 45 47 102 100 128 119 66 49 184 114 188 104 2 -4 -4
-47 -13 -95z m2248 -136 c32 -38 21 -100 -24 -123 -40 -21 -66 -19 -94 10 -44
43 -26 115 35 138 24 9 64 -2 83 -25z m-386 -49 c70 -34 123 -88 123 -126 0
-44 -23 -104 -51 -134 -21 -23 -36 -29 -68 -29 -36 0 -49 7 -92 47 -84 78
-131 180 -109 233 24 57 92 60 197 9z m-292 -167 c42 -21 148 -132 165 -171
12 -30 11 -37 -6 -68 -23 -44 -66 -77 -120 -93 -54 -16 -105 0 -135 42 -49 68
-77 241 -46 280 31 40 77 43 142 10z m588 -54 c21 -25 21 -40 2 -77 -20 -39
-66 -57 -105 -41 -57 24 -51 102 10 132 39 20 67 16 93 -14z m-2153 -67 c34
-64 -32 -263 -115 -346 -77 -76 -176 -20 -178 101 -1 122 247 330 293 245z
m264 -105 c43 -18 81 -73 106 -155 38 -121 19 -190 -62 -230 -87 -42 -204 -16
-248 53 -43 71 -16 226 52 295 51 53 92 62 152 37z m-754 -16 c10 -5 24 -26
30 -45 10 -30 9 -41 -7 -73 -33 -68 -114 -66 -148 4 -37 79 47 156 125 114z
m161 -253 c46 -36 53 -114 13 -146 -58 -46 -144 -11 -144 58 0 20 7 47 16 59
27 39 84 53 115 29z"/>
</g>
</svg>
